<?xml version="1.0" encoding="UTF-8"?><svg id="Livello_1" xmlns="http://www.w3.org/2000/svg" viewBox="0 0 509.99 509.99"><defs><style>.cls-1{stroke-miterlimit:10;}.cls-1,.cls-2,.cls-3{fill:none;stroke:#fff;stroke-width:7.47px;}.cls-2{fill-rule:evenodd;}.cls-2,.cls-3{stroke-linecap:round;stroke-linejoin:round;}.cls-4{fill:#e30613;}</style></defs><circle class="cls-4" cx="254.99" cy="254.99" r="254.99"/><path class="cls-1" d="M285.94,422.22c18.93,5.62,29.59-4.87,43-23.95,13.1-18.63,54.57,5.31,53.99-37.13-.38-27.53,56.37-14.68,39.95-62.94-5.45-16.01,4.05-23.61,9.17-31.58,18.59-23.55,2.11-44.57-8.89-57.83-14.62-17.62,5.72-30.35-.04-50.04-8.53-29.19-36.86-13.04-44.45-44.81-10.27-42.98-36.18-23.79-60.64-36.16-9.28-4.69-10.89-19.71-27.4-23.05-27.34-5.53-27.2,22.72-53.78,9.37-15.88-8.44-33.14-5.57-47.61,9.02-10.24,13.15-17.99,10.65-33.43,9.93-17.01-.8-27.21,15.16-28.93,31.12-2.36,12.73-14.88,16.22-24.78,22.24-18.23,10.98-13.06,25.27-15.31,44.5-1.26,10.76-10.91,15.37-13.35,25.55-3.38,13.67,9.54,25.22,9.77,38.97.28,15.98-10.18,16.39-8.64,36.9,1.23,16.41,21.07,18.07,24.81,27.04,4.5,10.77-4.58,30.15,3.17,39.41,2.64,3.15,6.95,6.48,8.3,7.38"/><path class="cls-3" d="M221.8,416.84c4.59,10.86,10.55,21.76,21.12,23.16,1.43.19,2.94.21,4.54.03,9.53-1.07,22.34-18.5,33.98-38.95,6.78-11.91,13.16-24.84,18.25-36.15,5.19-11.52,9.05-21.37,10.64-26.75,1.44-4.93.33-10.59-4.67-13.19-1.14-.47-2.27-.77-3.38-.92-10.75-1.43-20.03,11.33-28.47,17.48-12.82,9.35-26.51,13.03-39.76,11.27-9.6-1.28-18.97-5.42-27.63-12.34-1.33-1.06-2.78-1.64-4.21-1.83-5.48-.73-10.77,4.33-9.02,10.85,3.13,11.64,5.76,19.02,11.14,29.87"/><path class="cls-1" d="M207.31,380.87c-4.96,1.19-8.71.93-10.61.67-31.33-4.24-58.54-44.63-93.54-21.35-15.52,10.33-4.6,10.47,5.43,10.28,4.96-.09,23.27-1.48,48.89,25.79,24,25.55,50.2,23.47,66.76,17.5,1.12-.4,2.21-.82,3.26-1.26,16.13-7.57,36.97-15,55.61-17.16,6.24-12.2,14.34-24.66,18.92-36.19-22.56-4.78-72.37,16.34-94.71,21.71Z"/><path class="cls-2" d="M263.27,317.67c1.77,10.72-6.31,20.92-18.03,22.78-11.73,1.86-22.67-5.32-24.44-16.05-1.77-10.72,6.3-20.92,18.03-22.78,11.73-1.86,22.67,5.32,24.44,16.05"/><path class="cls-3" d="M208.02,418.36c25.97,48.12,39.23,62.24,80.06,2.29.03-.04-.03.04,0,0,19.89-29.23,37.11-70.87,39.3-95.36,3.52-39.18,4.09-92.79,3.95-102.59-.32-22.8-14.95-28.81-38.69-25.04-28.32,4.49-72.73,11.11-92.7,15.45-21.59,4.7-28.67,20.71-28.12,41.41.82,30.91.34,52.28,3.73,75.82,2.84,19.73,7.03,31.43,13.98,47.01"/><path class="cls-3" d="M222.46,278.14c-.02-.05-.04-.1-.06-.16.74-.53,1.34-1.25,1.7-2.15.99-2.5-.23-5.34-2.73-6.33l-24.62-11.12c-6.05-3.24-8.02.49-8.25,3.32-.22,2.68.23,5.34,2.73,6.33l8.03,3.19c-4.08,4.71-5.48,12.35-3.02,19.35,2.84,8.08,9.85,12.61,16.46,11.11.82-.19,1.64-.47,2.44-.85,3.5-1.66,6.19-4.93,7.58-9.22,1.38-4.28,1.29-9.07-.25-13.47Z"/><path class="cls-3" d="M316.43,247.03c-.06-2.69-4.33-8.73-12.48-4.2l-36.15,19.45c-2.48,1.05-3.64,3.91-2.59,6.39.51,1.22,1.47,2.11,2.6,2.59-.88,3.13-1.21,6.52-.82,9.96,1.15,10.32,8.21,17.59,16.42,17.61,1.02,0,2.06-.1,3.11-.34,4.59-1.01,8.66-4.14,11.46-8.83,2.8-4.69,4-10.36,3.37-15.98-.56-5.01-2.52-9.44-5.55-12.65l14.75-6.23c2.48-1.05,6-2.72,5.88-7.78Z"/><line class="cls-3" x1="193.65" y1="269.17" x2="221.43" y2="278.7"/><line class="cls-3" x1="269.93" y1="271.11" x2="310.55" y2="254.82"/></svg>